<?xml version="1.0" encoding="UTF-8"?>
<svg id="Livello_1" xmlns="http://www.w3.org/2000/svg" version="1.1" viewBox="0 0 595.28 841.89">
  <!-- Generator: Adobe Illustrator 29.3.0, SVG Export Plug-In . SVG Version: 2.1.0 Build 146)  -->
  <defs>
    <style>
      .st0 {
        fill: #fbe09c;
      }

      .st1 {
        fill: #fff;
      }

      .st2 {
        fill: #da3839;
      }

      .st3 {
        fill: #3a2137;
      }
    </style>
  </defs>
  <path class="st1" d="M336.62,141.71c3.64-18.39-21.34-25.4-35.49-23.99-2.86.28-11.74,2.6-13.9,4.11-4.3,3.01-4.23,17.57-4.61,22.89-16.72-1.48-35.01-.13-48.51,10.98-2.78,16.96-7.88,33.66-7.5,51.01-14.65-3.73-28.42,4.49-39.06,13.69-10.34,63.04-25.84,126.65-26.98,190.77-.11,6.35-.55,17.71.48,23.59,2.75,15.79,14.73,40.28,19.83,57.19,4.97,16.47,8.97,33.08,10.73,50.27,1.55,15.2.81,30.93,3.08,45.92,1.83,2.67,6.7,2.17,9.63,3.37,14.53,5.95,25.65,13.37,42.06,15.94,15.06,2.36,29.84.25,44.72,1.28,26.55,1.84,46.89,8.95,69.99-11.04,8.31-7.19,4.36-8.36,3.54-17.49-.82-9.16-4-38.39-1.26-45.23.89-2.21,8.11-10.42,10.22-12.78,18.21-20.46,46.19-38.72,57.91-64.09,4.48-9.7,2.23-7.57.58-16.34-9.34-49.8-13.03-101.61-16.9-152.13-1.7-6.25-16.72-.28-20.82,1.33-3.36,1.31-6.46,3.27-9.73,4.76l-8-75.51-3.91-70.1c-3.56-.52-4.31-3.66-6.12-4.85-1.03-.67-10.5-3.54-11.48-3.54h-18.5Z"/>
  <path class="st1" d="M395.63,682.71c9.62,7.73,15.74,18.86,22.45,29.03,6.06,4.59,14.82-.86,13.35-8.28-1.59-8.09-16.11-23.69-21.79-30.25,9.08-7.97,20.68-21.15,6.92-30.94-12.67-9.01-28.59-4.21-36.73,8.14-.55,13.27,0,26.56-.16,39.83-.06,5.22-3.16,13.19,5.53,14.42,13.16,1.87,8.7-13.52,10.43-21.96Z"/>
  <path class="st1" d="M296.61,685.71c22.25,2.73,26.27-26.26,11.93-38.42-9.15-7.75-25.01-8.55-29.87,3.99l2.98,51.91c1.09,5.87,10.81,6,14,2.06,4.23-5.22.44-13.58.97-19.53Z"/>
  <path class="st1" d="M344.62,657.71h16.5c1.96,0,6.06-3.21,6.49-5.54,1.84-10.05-6.3-9.72-13.53-9.5-4.02.12-10.91.64-14.85,1.15-2.82.36-8.03,1.23-8.6,4.4-2.18,12.03-4.77,39.24-1.31,50.29,3.63,11.59,20.61,23.76,31.35,13.75,4.06-3.78,5.61-12.44-.75-14.34-7.24-2.16-16.6,5.73-15.88-10.28,2.31-3.19,16.13,3.65,15.65-8.41-.41-10.38-13.5-4.51-15.65-7.46l.58-14.06Z"/>
  <path class="st1" d="M179.63,692.71c17.01,5.97,29.64-14.83,24.3-29.81-5.84-16.39-31.69-19.9-41.29-5.66.29,11.31-.47,22.71-.07,34.02.09,2.36.95,4.55,1.08,6.92.42,7.55-2.73,24.85,8.47,25.6,13.68.92,5.81-22.87,7.5-31.06Z"/>
  <path class="st1" d="M261.38,719.47c4.44-4.43-2.73-27.33-4.75-33.28-2.68-7.9-10.6-27.32-16.13-32.87-8.07-8.11-13.06-2.65-15.6,6.18-3.27,11.35-8.21,35.25-9.16,46.84-.33,3.94-1.39,11.7,3.58,13.15,9.12,2.67,11.66-5.41,12.29-12.79,4.92.52,9.1,1.94,13.99,0,1.03,3.62,2.02,11.03,5.44,13.07,2.31,1.37,8.48,1.54,10.33-.3Z"/>
  <path class="st3" d="M395.63,682.71c-1.74,8.44,2.72,23.83-10.43,21.96-8.69-1.24-5.6-9.21-5.53-14.42.16-13.27-.39-26.57.16-39.83,8.14-12.35,24.06-17.15,36.73-8.14,13.76,9.79,2.17,22.97-6.92,30.94,5.68,6.56,20.2,22.16,21.79,30.25,1.46,7.42-7.29,12.88-13.35,8.28-6.71-10.17-12.83-21.3-22.45-29.03ZM405.61,652.72l-11.85,1.14.86,9.86c1.31,1.17,13.21-8.82,10.99-10.99Z"/>
  <path class="st3" d="M261.38,719.47c-1.85,1.84-8.02,1.67-10.33.3-3.43-2.04-4.41-9.45-5.44-13.07-4.89,1.94-9.07.53-13.99,0-.63,7.38-3.17,15.46-12.29,12.79-4.97-1.46-3.9-9.21-3.58-13.15.96-11.58,5.9-35.48,9.16-46.84,2.54-8.83,7.53-14.29,15.6-6.18,5.53,5.55,13.45,24.97,16.13,32.87,2.02,5.95,9.18,28.85,4.75,33.28ZM241.55,692.64l-.43-3.93-4.5-9.99-1.91,13.9c2.4.63,4.5,1.12,6.84.03Z"/>
  <path class="st3" d="M179.63,692.71c-1.68,8.18,6.19,31.98-7.5,31.06-11.2-.75-8.05-18.05-8.47-25.6-.13-2.37-1-4.56-1.08-6.92-.41-11.3.36-22.7.07-34.02,9.6-14.24,35.45-10.73,41.29,5.66,5.34,14.98-7.3,35.78-24.3,29.81ZM178.63,683.71c3.41-3.3,10.65-5.78,11.78-10.71,2.1-9.19-6.23-12.24-13.79-10.29l2.02,21Z"/>
  <path class="st3" d="M344.62,657.71l-.58,14.06c2.14,2.95,15.23-2.92,15.65,7.46.48,12.06-13.33,5.22-15.65,8.41-.73,16,8.64,8.12,15.88,10.28,6.37,1.9,4.81,10.55.75,14.34-10.74,10.01-27.72-2.16-31.35-13.75-3.46-11.05-.87-38.26,1.31-50.29.57-3.17,5.78-4.03,8.6-4.4,3.93-.51,10.83-1.03,14.85-1.15,7.24-.22,15.37-.55,13.53,9.5-.43,2.33-4.53,5.54-6.49,5.54h-16.5Z"/>
  <path class="st3" d="M296.61,685.71c-.52,5.95,3.26,14.31-.97,19.53-3.19,3.95-12.91,3.81-14-2.06l-2.98-51.91c4.87-12.54,20.73-11.74,29.87-3.99,14.34,12.15,10.33,41.14-11.93,38.42ZM295.63,672.71c9.13-2.84,7.13-15.68-2.01-15.99l2.01,15.99Z"/>
  <path class="st1" d="M405.61,652.72c2.22,2.17-9.68,12.17-10.99,10.99l-.86-9.86,11.85-1.14Z"/>
  <path class="st1" d="M241.55,692.64c-2.34,1.09-4.43.6-6.84-.03l1.91-13.9,4.5,9.99.43,3.93Z"/>
  <path class="st1" d="M178.63,683.71l-2.02-21c7.57-1.96,15.9,1.1,13.79,10.29-1.13,4.93-8.37,7.41-11.78,10.71Z"/>
  <path class="st1" d="M295.63,672.71l-2.01-15.99c9.14.31,11.14,13.15,2.01,15.99Z"/>
  <g>
    <path class="st2" d="M336.62,141.71h18.5c.98,0,10.45,2.87,11.48,3.54,1.81,1.19,2.56,4.33,6.12,4.85l3.91,70.1,8,75.51c3.26-1.5,6.36-3.45,9.73-4.76,4.1-1.6,19.13-7.57,20.82-1.33,3.87,50.52,7.56,102.33,16.9,152.13,1.64,8.77,3.9,6.64-.58,16.34-11.72,25.37-39.7,43.64-57.91,64.09-2.1,2.36-9.33,10.57-10.22,12.78-2.74,6.83.44,36.06,1.26,45.23.82,9.14,4.77,10.3-3.54,17.49-23.1,19.99-43.43,12.88-69.99,11.04-14.87-1.03-29.66,1.08-44.72-1.28-16.41-2.57-27.53-9.99-42.06-15.94-2.94-1.2-7.81-.7-9.63-3.37-2.27-14.98-1.53-30.72-3.08-45.92-1.76-17.19-5.76-33.8-10.73-50.27-5.1-16.91-17.08-41.39-19.83-57.19-1.02-5.88-.59-17.24-.48-23.59,1.14-64.12,16.64-127.73,26.98-190.77,10.64-9.2,24.41-17.42,39.06-13.69-.38-17.34,4.71-34.05,7.5-51.01,13.51-11.11,31.79-12.46,48.51-10.98.38-5.32.31-19.88,4.61-22.89,2.15-1.5,11.03-3.82,13.9-4.11,14.15-1.41,39.13,5.6,35.49,23.99ZM326.41,134.91c-7.07-5.73-22.49-10.43-30.75-5.65-2.53,1.47-3.62,14.23-4.09,18-4.82,38.74-7.52,79.31-8.91,119-.08,2.37-1.01,4.55-1.08,6.92-.49,16.43,1.28,33.4-.96,49.53l41.01-5.98,4.79-181.8ZM279.12,154.71h-18c-1.79,0-16.46,5.08-17.28,6.23-14.1,56.08-6.14,114.92-8.22,172.27-1.24,5.72-10,3.32-10-1v-116.5c-11.37,0-23.1,2.88-29.76,12.74-7.22,54.07-21.79,108.08-24.23,162.77-.51,11.51-1.43,29.87-.69,40.86.69,10.13,16.02,44.76,19.94,57.87,8.88,29.71,13.04,58.58,12.74,89.76,8.55.67,16.6,6.64,24.73,9.77,24.82,9.53,39.02,5.42,63.75,7.25,21.62,1.6,35.45,8.2,56.21-4.82,11.09-6.96,6.19-8.34,5.32-19.7-.71-9.28-2.46-24.42-2.08-32.98.71-16.38,43.65-49.86,55.59-63.5,6.46-7.38,12.27-15.62,16.19-24.63-8.32-50.44-14.59-101.3-17.7-152.38-12.93,2.23-25.59,10.54-33.79,20.7l-3.24,40.76-.02,52.97c4.39.67,8.41,3.32,6,7.97-8.1,3.61-17.6,4.49-26.2,7.84-10.37,4.04-22.75,11.55-31.21,18.79-3.42,2.92-11.45,13.05-15.03,13.08l-3.02-1.09c-4.8-4.4,5.03-13.26,8.51-16.53,14.06-13.23,32.31-22.65,50.91-27.58l.06-54.44c2.3-12.67.85-27.36,3.12-39.88,1.56-8.6,6.39-13.86,13.47-18.6l.4-1.38c-7.27-48.24-10.86-97.23-11.9-145.94-8.01-4.51-17.57-3.8-26.41-3.52l-1.64,2.36c-2.48,53.78-4.74,107.46-3.79,161.3,5.63,1.99,5.61,9.19-.77,10.14-21.97,3.25-39.3,3.93-61.2,10.8-5.07,1.59-32.08,15.35-28.07,1.97,1.23-4.12,25.78-10.91,30.84-12.73-1.48-14.35-1.41-29.94-1.05-44.52.49-19.45,1.7-39.43,3.05-58.95,1.52-21.96,4.68-43.94,5.83-65.86l-1.34-1.66Z"/>
    <path class="st0" d="M279.12,154.71l1.34,1.66c-1.14,21.91-4.3,43.9-5.83,65.86-1.35,19.52-2.56,39.5-3.05,58.95-.37,14.58-.44,30.17,1.05,44.52-5.06,1.81-29.61,8.61-30.84,12.73-4.01,13.38,23-.38,28.07-1.97,21.91-6.87,39.23-7.55,61.2-10.8,6.39-.94,6.4-8.15.77-10.14-.95-53.84,1.31-107.52,3.79-161.3l1.64-2.36c8.84-.28,18.4-.99,26.41,3.52,1.04,48.71,4.63,97.7,11.9,145.94l-.4,1.38c-7.08,4.74-11.91,9.99-13.47,18.6-2.27,12.52-.82,27.21-3.12,39.88l-.06,54.44c-18.61,4.94-36.85,14.36-50.91,27.58-3.48,3.27-13.3,12.14-8.51,16.53l3.02,1.09c3.58-.02,11.61-10.15,15.03-13.08,8.46-7.24,20.84-14.75,31.21-18.79,8.6-3.35,18.1-4.22,26.2-7.84,2.41-4.65-1.6-7.3-6-7.97l.02-52.97,3.24-40.76c8.2-10.16,20.86-18.47,33.79-20.7,3.11,51.09,9.39,101.94,17.7,152.38-3.92,9.01-9.73,17.26-16.19,24.63-11.94,13.64-54.88,47.12-55.59,63.5-.37,8.56,1.37,23.7,2.08,32.98.87,11.36,5.78,12.74-5.32,19.7-20.76,13.03-34.59,6.43-56.21,4.82-24.73-1.83-38.93,2.28-63.75-7.25-8.13-3.12-16.18-9.1-24.73-9.77.3-31.18-3.85-60.06-12.74-89.76-3.92-13.1-19.26-47.74-19.94-57.87-.75-10.99.17-29.34.69-40.86,2.44-54.69,17.01-108.7,24.23-162.77,6.66-9.86,18.39-12.74,29.76-12.74v116.5c0,4.32,8.77,6.72,10,1,2.08-57.36-5.87-116.2,8.22-172.27.82-1.15,15.48-6.23,17.28-6.23h18Z"/>
    <path class="st0" d="M326.41,134.91l-4.79,181.8-41.01,5.98c2.23-16.13.46-33.1.96-49.53.07-2.37,1-4.55,1.08-6.92,1.39-39.69,4.1-80.26,8.91-119,.47-3.77,1.56-16.53,4.09-18,8.25-4.78,23.68-.07,30.75,5.65Z"/>
  </g>
</svg>