<?xml version="1.0" encoding="UTF-8"?>
<svg id="Livello_1" xmlns="http://www.w3.org/2000/svg" version="1.1" viewBox="0 0 595.28 841.89">
  <!-- Generator: Adobe Illustrator 29.3.0, SVG Export Plug-In . SVG Version: 2.1.0 Build 146)  -->
  <defs>
    <style>
      .st0 {
        fill: #fbe09c;
      }

      .st1 {
        fill: #fff;
      }

      .st2 {
        fill: #da3839;
      }

      .st3 {
        fill: #3a2137;
      }
    </style>
  </defs>
  <path class="st1" d="M320.33,285.24l-20.68-50.82c-2.52-2.66-13.94-3.83-17.92-4.08-52.26-3.31-105.3,5.29-156.83,9.23l-71.22,41.8c-1.7,3.83.46,7.72.54,11.47,2.23,98.7,19.12,196.43,43.2,291.8,1.45,4.32,19.4,11.03,24.25,12.75,22.31,7.94,56.53,16.57,80.01,14.97,31.57-2.15,58.43-19.07,80.02-40.98,3.2-26.18,6.09-52.56,12.92-78.08,16.24-17.36,32.95-34.44,50.04-50.96,10.18-9.84,32.56-25.95,36.78-38.22,11.12-32.33,8.31-73.94-2.19-106.07-18.15-9.1-38.84-11.81-58.93-12.82Z"/>
  <path class="st1" d="M509.26,506.3c-2.72-3.79,25.75-33.02,7.43-32.97-6.93.02-16.65,17.87-21,23.05-1.67-3.74-1.61-13.71-4.92-16.07-2.08-1.48-9.21-1.55-10.66.74-2.94,4.65,1.98,39.09,3.22,46.69s1.46,18.75,12.91,15.19c2.92-.91,5.93-5.04,5.84-8.08-.05-1.64-1.47-2.86-1.67-4.21-.53-3.71-.98-7.52-1.23-11.26.5-.56,11.24,5,12.67,5.82,5.51,3.18,19.18,16.1,24.78,8.12,7.35-10.47-19.65-24.52-27.39-27.03Z"/>
  <path class="st1" d="M344.2,541.38c10.11-2.71,21.97,19.45,30.01,10.52,7.52-8.35-8.75-19.53-14.94-23.12,8.56-13.93,6.25-32.38-9.72-39.25-10.33-4.45-25.43-.65-27.14,11.61-.88,6.34,2.81,23.31,3.78,30.74.74,5.61.09,24.03,7.53,25.48,11.45,2.22,10.82-7.58,10.48-15.99Z"/>
  <path class="st1" d="M390.91,489.57c-13.14,1.63-10.99,28.9-9.42,38.01,2.5,14.49,10.85,34.42,28.64,22.23,18.8-12.89,18.79-35.44,5.89-52.76-7.24-9.72-9.65-7.65-20.44-6.77-1.58.13-3.06-.91-4.67-.71Z"/>
  <path class="st1" d="M447.9,492.6c-14.06,3.24-17.43,28.07-10.14,38.72,3.59,5.24,13.58,11.41,19.93,12.06,7.44.77,20.21-2.66,17.31-12.28-3.1-10.3-24.82,2.48-26.37-14.68-.75-8.35,10-12.82,9.67-18.54-.31-5.42-5.8-6.34-10.4-5.29Z"/>
  <path class="st3" d="M344.2,541.38c.34,8.4.97,18.21-10.48,15.99-7.44-1.45-6.8-19.87-7.53-25.48-.97-7.43-4.66-24.4-3.78-30.74,1.7-12.26,16.81-16.06,27.14-11.61,15.97,6.88,18.29,25.32,9.72,39.25,6.19,3.59,22.46,14.77,14.94,23.12-8.04,8.93-19.91-13.23-30.01-10.52ZM341.2,525.37c2,2.11,13.62-13.69,4.52-21.02-2.33-1.87-4.56-2.27-7.52-1.97l3,22.99Z"/>
  <path class="st3" d="M509.26,506.3c7.74,2.52,34.74,16.56,27.39,27.03-5.6,7.98-19.28-4.94-24.78-8.12-1.42-.82-12.17-6.38-12.67-5.82.25,3.74.7,7.55,1.23,11.26.19,1.35,1.62,2.57,1.67,4.21.09,3.03-2.93,7.17-5.84,8.08-11.46,3.57-11.62-7.28-12.91-15.19s-6.16-42.05-3.22-46.69c1.45-2.29,8.58-2.22,10.66-.74,3.31,2.37,3.25,12.33,4.92,16.07,4.35-5.17,14.07-23.03,21-23.05,18.32-.05-10.15,29.18-7.43,32.97Z"/>
  <path class="st3" d="M390.91,489.57c1.62-.2,3.09.83,4.67.71,10.79-.88,13.2-2.95,20.44,6.77,12.9,17.32,12.91,39.88-5.89,52.76-17.79,12.19-26.14-7.74-28.64-22.23-1.57-9.11-3.71-36.38,9.42-38.01ZM396.3,503.49c-2.74,2.3,1.03,26.45,3.08,30.2,1.94,3.54,8.03-2.03,9.05-4.57,2.62-6.47-1.27-29.1-12.14-25.63Z"/>
  <path class="st3" d="M447.9,492.6c4.6-1.06,10.08-.14,10.4,5.29.33,5.72-10.42,10.19-9.67,18.54,1.55,17.16,23.28,4.38,26.37,14.68,2.89,9.62-9.88,13.05-17.31,12.28-6.35-.66-16.34-6.82-19.93-12.06-7.29-10.65-3.92-35.48,10.14-38.72Z"/>
  <path class="st1" d="M341.2,525.37l-3-22.99c2.96-.29,5.19.1,7.52,1.97,9.11,7.33-2.51,23.12-4.52,21.02Z"/>
  <path class="st1" d="M396.3,503.49c10.86-3.47,14.76,19.16,12.14,25.63-1.03,2.54-7.11,8.11-9.05,4.57-2.05-3.75-5.82-27.9-3.08-30.2Z"/>
  <g>
    <path class="st2" d="M320.33,285.24c20.09,1.02,40.78,3.73,58.93,12.82,10.5,32.13,13.32,73.74,2.19,106.07-4.22,12.27-26.61,28.37-36.78,38.22-17.09,16.52-33.79,33.6-50.04,50.96-6.83,25.52-9.72,51.9-12.92,78.08-21.6,21.91-48.45,38.83-80.02,40.98-23.48,1.6-57.69-7.03-80.01-14.97-4.85-1.72-22.79-8.43-24.25-12.75-24.08-95.38-40.96-193.1-43.2-291.8-.08-3.75-2.24-7.64-.54-11.47l71.22-41.8c51.53-3.95,104.56-12.54,156.83-9.23,3.98.25,15.4,1.42,17.92,4.08l20.68,50.82ZM242.01,348.2c4.56-14.4,9.24-28.69,11.87-43.63,1.52-8.63,5.18-31.78,2.87-39.24-1.03-3.32-11.61-15.49-14.41-19.59-1.01-1.48-.88-4.57-2.78-5.22l-45.73,2-1.15,1.87c2.99,4.6,24.12,20.27,24.54,23.56.29,2.24-1.21,4.59-1.11,6.94.11,2.68,1.11,5.06,1.13,7.95.17,23.51-1.99,47.13-9.04,69.54l33.81-4.18ZM292.04,241.54l-40.84-1.16,16.96,25.53c-2.36,14.16-2.74,28.49-5.28,42.64-2.31,12.87-6.24,25.26-9.68,37.81l40.99-7.01c-1.83-3.24-7.43.11-9.76-2.23-4.17-10.67-5.1-23.86-4.28-35.29.3-4.15,2.27-19.87,6.56-20.51,3.48-.52,15.24,3.48,19.98,3.06l1.53-1.53-16.19-41.32ZM158.2,358.37l37.98-4.51c12.55-25.59,11.35-54.91,10.81-82.78-10.1-8.83-19.18-19.33-30.36-26.68l-46.43,5.98c-.45,1.73.72,2,1.49,3,4.2,5.47,30.35,28.41,31.12,30.97-.44,6.21,2,12.2,2.43,18.48,1.3,18.85-1.23,37.67-7.04,55.54ZM147.05,360.24c5.71-15.4,9.66-32.83,9.18-49.4-.19-6.67-2.94-14.25-1.27-20.84l-35.42-35.46-54.37,31.34c-2.77,3.09-.2,20.17,0,25.02,3.79,89.86,18.38,179,41.23,265.77,1.84,3.54,23.04,10.44,28.02,11.98,18.5,5.76,45.13,12.74,64.31,11.78,28.48-1.43,55.04-16.82,73.5-37.75,3.83-24.96,6.39-50.26,13.09-74.66,23.69-27.01,51.3-50.07,76.88-75.12,2.26-2.22,7.54-6.79,8.76-9.24,7.63-15.24,8.18-53.67,6.1-70.65-.58-4.75-4.35-26.58-7.54-28.46s-15.81-5-20.13-5.87c-19.04-3.83-38.92-3.82-58.16-6.25-1.63,1.56-1.69,32.01.47,34.94,1.09,1.48,30.88,13.37,34,14.09,3.35.77,8.3-1.52,10.02,1.92s-3.85,9.74-5.3,13.72-1.78,13.03-5.95,14.12c-5.05,1.32-7.77-3.68-5.27-7.84-19.6,1.85-38.4,12.46-54.92,22.57-3.49,2.14-17.21,12.66-19.54,12.47-3.62-.3-5.17-4.66-3-7.99,2.33-3.57,14.26-10.81,18.53-13.48,18.04-11.27,38.71-21.9,60.23-23.77l1.68-2.81-25.99-10.01c-.23,1.81,2,.03,2.11,2.45.07,1.47-.45,4.81-1.77,5.63-1.96,1.21-13.79,2.96-17.16,3.6-29.01,5.52-58.5,8.58-87.68,12.32-10.56,1.35-24.96,2.04-34.77,4.23-3.11.69-5.89,3.73-7.21,3.76-1.52.03-3.58-1.89-6.04-2.07-3.08-.22-6.12,1.57-8.94,1.1-.89-.15-14.47-5.35-16.81-6.27-4.92-1.92-23.43-12.52-25.22-16.78-2.42-5.76,1.9-33.95,4.73-40.23,2.03-4.49,9.34-3.57,9.74.77.37,3.97-4.58,18.59-4.99,24.99-.16,2.42-.42,6.79,0,8.97.59,2.99,10.34,8.92,13.48,10.52,9.38,4.79,20.84,7.52,31.37,6.85Z"/>
    <path class="st0" d="M147.05,360.24c-10.53.66-21.99-2.07-31.37-6.85-3.14-1.6-12.89-7.53-13.48-10.52-.43-2.18-.16-6.54,0-8.97.41-6.4,5.36-21.02,4.99-24.99-.4-4.34-7.72-5.26-9.74-.77-2.83,6.27-7.15,34.46-4.73,40.23,1.79,4.26,20.3,14.86,25.22,16.78,2.34.91,15.92,6.12,16.81,6.27,2.82.47,5.86-1.33,8.94-1.1,2.46.18,4.52,2.1,6.04,2.07,1.32-.03,4.1-3.06,7.21-3.76,9.81-2.19,24.21-2.88,34.77-4.23,29.18-3.75,58.67-6.8,87.68-12.32,3.36-.64,15.19-2.4,17.16-3.6,1.33-.81,1.84-4.16,1.77-5.63-.11-2.42-2.34-.64-2.11-2.45l25.99,10.01-1.68,2.81c-21.53,1.87-42.2,12.49-60.23,23.77-4.27,2.67-16.21,9.91-18.53,13.48-2.17,3.33-.62,7.69,3,7.99,2.32.19,16.05-10.33,19.54-12.47,16.52-10.11,35.32-20.73,54.92-22.57-2.49,4.16.22,9.16,5.27,7.84,4.17-1.09,4.5-10.15,5.95-14.12s7.05-10.24,5.3-13.72-6.67-1.15-10.02-1.92c-3.12-.72-32.91-12.61-34-14.09-2.16-2.93-2.1-33.38-.47-34.94,19.24,2.43,39.12,2.42,58.16,6.25,4.32.87,16.82,3.91,20.13,5.87s6.95,23.71,7.54,28.46c2.09,16.98,1.53,55.41-6.1,70.65-1.22,2.45-6.5,7.02-8.76,9.24-25.58,25.05-53.19,48.11-76.88,75.12-6.7,24.41-9.26,49.7-13.09,74.66-18.47,20.93-45.02,36.32-73.5,37.75-19.18.96-45.8-6.02-64.31-11.78-4.97-1.55-26.18-8.45-28.02-11.98-22.85-86.77-37.44-175.91-41.23-265.77-.2-4.85-2.77-21.93,0-25.02l54.37-31.34,35.42,35.46c-1.66,6.6,1.08,14.18,1.27,20.84.48,16.57-3.47,34.01-9.18,49.4Z"/>
    <path class="st0" d="M158.2,358.37c5.81-17.87,8.33-36.68,7.04-55.54-.43-6.29-2.87-12.27-2.43-18.48-.77-2.56-26.91-25.5-31.12-30.97-.77-1-1.94-1.27-1.49-3l46.43-5.98c11.18,7.35,20.27,17.85,30.36,26.68.55,27.87,1.74,57.19-10.81,82.78l-37.98,4.51Z"/>
    <path class="st0" d="M242.01,348.2l-33.81,4.18c7.05-22.42,9.21-46.03,9.04-69.54-.02-2.89-1.02-5.27-1.13-7.95-.09-2.35,1.4-4.7,1.11-6.94-.42-3.29-21.55-18.96-24.54-23.56l1.15-1.87,45.73-2c1.9.65,1.77,3.73,2.78,5.22,2.8,4.1,13.38,16.28,14.41,19.59,2.31,7.46-1.36,30.62-2.87,39.24-2.63,14.94-7.31,29.24-11.87,43.63Z"/>
    <path class="st0" d="M292.04,241.54l16.19,41.32-1.53,1.53c-4.73.42-16.5-3.58-19.98-3.06-4.29.64-6.26,16.36-6.56,20.51-.83,11.43.11,24.63,4.28,35.29,2.33,2.34,7.92-1.01,9.76,2.23l-40.99,7.01c3.44-12.55,7.37-24.94,9.68-37.81,2.54-14.16,2.92-28.48,5.28-42.64l-16.96-25.53,40.84,1.16Z"/>
  </g>
</svg>