<?xml version="1.0" encoding="UTF-8"?>
<svg id="Livello_1" xmlns="http://www.w3.org/2000/svg" version="1.1" viewBox="0 0 595.28 841.89">
  <!-- Generator: Adobe Illustrator 29.3.0, SVG Export Plug-In . SVG Version: 2.1.0 Build 146)  -->
  <defs>
    <style>
      .st0 {
        fill: #fbe09c;
      }

      .st1 {
        fill: #fff;
      }

      .st2 {
        fill: #da3839;
      }

      .st3 {
        fill: #3a2137;
      }
    </style>
  </defs>
  <path class="st1" d="M380.46,302.93c19.08-10.51,37.33-22.5,56.32-33.19,20.62-11.6,41.93-21.97,62.71-33.29,5.4-8.29,4.83-19.48,1.44-28.52-3.35-8.95-17.05-24.41-27.51-21.55-10.51,2.88-28.83,12.5-39.65,17.36-60.01,26.97-118.07,58.53-174,93.02-19.33-14.83-42.63-15.32-65.55-9.58-8.78,7-17.46,15.35-25.28,23.72-33.72,36.08-58.5,79.26-84.69,120.81-8.08.22-16.25.43-24.34.25-3.41-.08-9.24-2.6-12.07-.14-1.1.95-.96,2.66-1.75,3.75-4.08,5.62-4.15,8.46-4.63,15.86-1.94,29.54,4.54,63.32,16.81,90.17,2.34,5.12,6.73,17.26,12.65,17.35,104.66-13.01,210.43-29.91,311.74-59.31,4.93-1.43,16.92-3.99,20.3-6.7s4.37-8.23,5.75-12.25c13.3-38.89,21.41-80.8,31.96-120.54l99.95-38.55,10.16-1.59c5.69-7.53,4.8-43.52-1.96-47.99-.86-.57-1.78-.97-2.84-.96-37.85,4.34-75.5,10.66-112.56,19.35-15.7,3.68-34.65,10.84-49.74,13.26-1.06.17-3.47,1.06-3.23-.74Z"/>
  <path class="st1" d="M448.15,549.64c7.73-9.35-15.18-21.58-21.39-5.91s13.1,21.78,13.54,29.9c-.78,3.86-6.03,1.54-9.6,3.05-9.97,4.2-1.27,20.83,14.14,14.14,17.93-7.79,12.3-29.4-1.39-38.39-.2-.47,3.94-1.87,4.7-2.78Z"/>
  <path class="st1" d="M383.45,592.93c9.03-1.2,29.06,18.76,34.47,5.97,3.92-9.26-14.21-16.59-21.05-18.93,2.03-8.72,7.97-15.39,1.59-24.55-8.38-12.02-25.86-9.1-30.5,4.51-2.99,8.77-.77,37.84,1.77,47.23,1.64,6.08,7.06,8.57,12.64,5.18,6.13-3.73,1.55-13.51,1.09-19.4Z"/>
  <path class="st1" d="M317.17,559.15c-30.42,12.46-15.44,63.01,17.33,56.33,19.73-4.02,28.97-37.16,14.34-51.45-8.95-8.75-20.47-3.37-31.67-4.87Z"/>
  <path class="st1" d="M284.21,576.69c1.98-1.99,1.56-7.54-.3-9.73-1.74-2.05-10.37-5.36-13.22-5.77-10.89-1.58-21.61,4.28-21.32,16.24.31,12.81,16.84,19.08,20.05,31.03-17.21,3.55-5,22.24,8.54,13.48,13.3-8.6,3.32-26.15-3.99-35.02-1.42-1.73-10.64-9.44-9.51-10.98,5.38-3.01,15.12,5.4,19.76.75Z"/>
  <path class="st1" d="M223.8,588.57c-1.18-1.28-2.01-3.03-3.26-4.3,2.71-7.46,12.22-.17,17.3-3.45,6.02-3.89.42-11.25-4.39-13.4-13.78-6.16-35.49,9.08-27.88,23.88,1.35,2.62,10.1,10.41,12.86,13.14,2.59,2.56,7.19,3.46,5.92,8.4-9.15,2.19-18.26,4.74-11.65,15.83,10.05,4.13,26.44-4.22,27.53-15.53,1.15-11.96-9.84-17.42-16.43-24.56Z"/>
  <path class="st1" d="M180.16,574.14c-1.2.28-2.37.87-3.18,1.82-3.57,4.15-.3,26.92.63,33.3,1.07,7.3,2.01,25.28,12.26,24.66,12.28-.75,4-24.46,2.86-31.78-.89-5.78-1.54-21.2-3.88-25.12-2-3.36-5.01-3.71-8.7-2.87Z"/>
  <path class="st1" d="M91.16,596.23c.99.88.96,2.87,2.97,3.5,10.73,3.38,12.99-13.02,1.56-17.55-17.82-7.06-31.5,13.34-29.28,29.28,2.15,15.4,30.58,9.29,28.95,26.35-4.35,2.02-5.76-3.54-10.93-2.52-9.26,1.83-6.84,12.25-.31,16.45,8.89,5.72,24.58.5,26.27-10.4,3.09-19.98-11.35-30.06-28.94-33.44.65-3.86,4.73-16.09,9.71-11.68Z"/>
  <path class="st1" d="M143.27,581.16c-29.95,1.12-35.63,45.79-8.1,55.53,9.63,3.41,30.59,2.85,29.36-11.28-.77-8.79-12.94-2.74-17.67-2.58-14.75.51-19.15-20.16-4.95-25.95,4.62-1.88,12.09-1.16,13.39-7.7,1.17-5.88-7.5-8.19-12.03-8.02Z"/>
  <path class="st3" d="M317.17,559.15c11.2,1.5,22.72-3.87,31.67,4.87,14.64,14.3,5.4,47.43-14.34,51.45-32.77,6.68-47.75-43.86-17.33-56.33ZM322.38,572.99l-1.4-.05c-9.02,6.17-5.1,26.22,5.98,27.04,13.9,1.02,17.24-23.82,8.77-25.92-2.91-.72-10.54,6.89-13.35-1.07Z"/>
  <path class="st3" d="M383.45,592.93c.46,5.9,5.05,15.68-1.09,19.4-5.59,3.4-11,.9-12.64-5.18-2.54-9.39-4.76-38.46-1.77-47.23,4.64-13.61,22.13-16.53,30.5-4.51,6.38,9.16.45,15.83-1.59,24.55,6.84,2.34,24.97,9.68,21.05,18.93-5.41,12.78-25.44-7.17-34.47-5.97ZM381.46,572.92c2.48-.99,7.59-9.98,3.4-10.95l-3.45,1.62.05,9.33Z"/>
  <path class="st3" d="M91.16,596.23c-4.98-4.41-9.06,7.83-9.71,11.68,17.59,3.38,32.03,13.46,28.94,33.44-1.68,10.9-17.38,16.12-26.27,10.4-6.53-4.2-8.96-14.62.31-16.45,5.17-1.02,6.58,4.54,10.93,2.52,1.63-17.06-26.8-10.95-28.95-26.35-2.22-15.94,11.46-36.34,29.28-29.28,11.44,4.53,9.17,20.93-1.56,17.55-2.01-.63-1.97-2.62-2.97-3.5Z"/>
  <path class="st3" d="M143.27,581.16c4.54-.17,13.2,2.14,12.03,8.02-1.3,6.54-8.77,5.82-13.39,7.7-14.21,5.78-9.81,26.46,4.95,25.95,4.73-.16,16.9-6.21,17.67,2.58,1.24,14.14-19.73,14.69-29.36,11.28-27.53-9.74-21.86-54.41,8.1-55.53Z"/>
  <path class="st3" d="M223.8,588.57c6.59,7.14,17.58,12.61,16.43,24.56-1.09,11.31-17.48,19.66-27.53,15.53-6.61-11.09,2.5-13.64,11.65-15.83,1.28-4.94-3.32-5.83-5.92-8.4-2.77-2.73-11.52-10.52-12.86-13.14-7.61-14.8,14.1-30.04,27.88-23.88,4.81,2.15,10.41,9.51,4.39,13.4-5.08,3.28-14.59-4.01-17.3,3.45,1.24,1.27,2.08,3.02,3.26,4.3Z"/>
  <path class="st3" d="M284.21,576.69c-4.64,4.65-14.37-3.76-19.76-.75-1.13,1.54,8.08,9.25,9.51,10.98,7.32,8.87,17.29,26.42,3.99,35.02-13.54,8.76-25.75-9.93-8.54-13.48-3.21-11.94-19.74-18.21-20.05-31.03-.29-11.96,10.43-17.81,21.32-16.24,2.85.41,11.48,3.72,13.22,5.77,1.86,2.19,2.28,7.74.3,9.73Z"/>
  <path class="st3" d="M448.15,549.64c-.76.92-4.9,2.31-4.7,2.78,13.69,9,19.31,30.6,1.39,38.39-15.41,6.7-24.11-9.93-14.14-14.14,3.56-1.5,8.82.81,9.6-3.05-.44-8.12-20.01-13.55-13.54-29.9s29.12-3.45,21.39,5.91Z"/>
  <path class="st3" d="M180.16,574.14c3.69-.84,6.7-.49,8.7,2.87,2.34,3.92,2.98,19.34,3.88,25.12,1.13,7.32,9.42,31.04-2.86,31.78-10.25.62-11.2-17.36-12.26-24.66-.93-6.38-4.2-29.15-.63-33.3.81-.94,1.98-1.54,3.18-1.82Z"/>
  <path class="st1" d="M322.38,572.99c2.82,7.95,10.45.34,13.35,1.07,8.47,2.1,5.12,26.94-8.77,25.92-11.08-.81-15-20.87-5.98-27.04l1.4.05Z"/>
  <path class="st1" d="M381.46,572.92l-.05-9.33,3.45-1.62c4.19.97-.92,9.95-3.4,10.95Z"/>
  <g>
    <path class="st2" d="M380.46,302.93c-.24,1.8,2.17.91,3.23.74,15.09-2.42,34.04-9.58,49.74-13.26,37.06-8.69,74.72-15.01,112.56-19.35,1.05-.01,1.98.39,2.84.96,6.76,4.47,7.65,40.46,1.96,47.99l-10.16,1.59-99.95,38.55c-10.56,39.74-18.66,81.65-31.96,120.54-1.38,4.03-2.38,9.56-5.75,12.25s-15.37,5.27-20.3,6.7c-101.32,29.39-207.08,46.3-311.74,59.31-5.92-.08-10.31-12.23-12.65-17.35-12.27-26.85-18.75-60.62-16.81-90.17.48-7.4.55-10.24,4.63-15.86.79-1.09.65-2.79,1.75-3.75,2.83-2.46,8.66.06,12.07.14,8.09.18,16.27-.03,24.34-.25,26.19-41.55,50.97-84.72,84.69-120.81,7.82-8.37,16.49-16.72,25.28-23.72,22.92-5.75,46.22-5.25,65.55,9.58,55.94-34.48,114-66.05,174-93.02,10.81-4.86,29.14-14.48,39.65-17.36,10.47-2.87,24.16,12.6,27.51,21.55,3.38,9.04,3.95,20.23-1.44,28.52-20.78,11.32-42.09,21.69-62.71,33.29-18.99,10.68-37.24,22.67-56.32,33.19ZM91.95,441.92h-37.5c-1.59,18.72-.89,36.53,2.48,55.02s9.79,35.08,18.14,51.06c108.46-12.45,216.17-32.34,320.8-63.16l16.58-54.91c-1.09-.99-13.29,3.17-15.51,3.98-3.54,1.28-13.92,6.87-16.05,7-4.42.27-6.64-3.24-5.27-7.32s33.58-14.55,39.64-14.85l13.2-53.8-54.76,20.82c-4.36,1.02-7.79-4.42-4.71-7.79l173.82-67.95c3.44-2.54,1.25-23.27-.44-27.98-50.37,5.28-100.24,15.66-148.91,29.4-13.31,3.76-28.85,10.45-41.78,13.21-5.96,1.27-10.97,2.23-10.81-5.76.73-2.59,13.87-10.81,17.07-12.98,38.86-26.33,86.38-54.22,128.82-74.2,1.43-.67,3.02-.57,4.49-.98,2.92-9.56,1.65-19.46-4.76-27.33-5.11-6.26-7.34-7.49-15.01-4.95-12.84,4.25-29.06,12.5-41.69,18.3-59.87,27.48-118.37,60.03-173.66,94.34-4.65,2.89-24.91,16.94-28.19,16.93-3.66-.02-5.37-4-3.99-7.05,2.01-4.42,20.24-12.35,24.45-16.59.82-.83,1.42-.91,1.05-2.42-7.29-3.94-15.1-7.28-23.51-8-6.18-.53-23.13.61-28.41,3.56-4.03,2.26-22.31,21.71-26.59,26.41-24.89,27.34-47.63,63.4-66.9,95.1-2.2,3.62-7.66,11-8.85,14.24-.76,2.09.5,7.59-3.23,8.67Z"/>
    <path class="st0" d="M91.95,441.92c3.74-1.09,2.47-6.58,3.23-8.67,1.19-3.24,6.65-10.62,8.85-14.24,19.27-31.69,42.01-67.76,66.9-95.1,4.28-4.7,22.56-24.15,26.59-26.41,5.28-2.95,22.23-4.09,28.41-3.56,8.41.72,16.22,4.07,23.51,8,.37,1.52-.23,1.6-1.05,2.42-4.22,4.23-22.45,12.17-24.45,16.59-1.39,3.05.33,7.04,3.99,7.05,3.27.02,23.53-14.04,28.19-16.93,55.29-34.3,113.8-66.86,173.66-94.34,12.63-5.8,28.85-14.05,41.69-18.3,7.67-2.54,9.9-1.31,15.01,4.95,6.41,7.87,7.68,17.76,4.76,27.33-1.48.41-3.06.3-4.49.98-42.44,19.98-89.95,47.87-128.82,74.2-3.19,2.16-16.34,10.38-17.07,12.98-.15,7.99,4.86,7.03,10.81,5.76,12.93-2.76,28.46-9.45,41.78-13.21,48.67-13.74,98.54-24.12,148.91-29.4,1.69,4.71,3.88,25.45.44,27.98l-173.82,67.95c-3.07,3.37.35,8.81,4.71,7.79l54.76-20.82-13.2,53.8c-6.06.3-38.27,10.77-39.64,14.85s.85,7.6,5.27,7.32c2.14-.13,12.52-5.73,16.05-7,2.23-.8,14.42-4.97,15.51-3.98l-16.58,54.91c-104.63,30.82-212.34,50.71-320.8,63.16-8.35-15.98-14.9-33.23-18.14-51.06s-4.07-36.3-2.48-55.02h37.5Z"/>
  </g>
</svg>